<svg width="40" height="40" viewBox="0 0 40 40" fill="none" xmlns="http://www.w3.org/2000/svg">
<rect width="40" height="40" rx="20" fill="#734B2E"/>
<path fill-rule="evenodd" clip-rule="evenodd" d="M20 10C17.8783 10 15.8434 10.8429 14.3431 12.3431C12.8429 13.8434 12 15.8783 12 18C12 21.0981 14.0157 24.1042 16.226 26.4373C17.3106 27.5822 18.3987 28.5195 19.2167 29.1708C19.5211 29.4133 19.787 29.6152 20 29.7726C20.213 29.6152 20.4789 29.4133 20.7833 29.1708C21.6013 28.5195 22.6894 27.5822 23.774 26.4373C25.9843 24.1042 28 21.0981 28 18C28 15.8783 27.1571 13.8434 25.6569 12.3431C24.1566 10.8429 22.1217 10 20 10ZM20 31C19.4453 31.8321 19.445 31.8319 19.4448 31.8317L19.4419 31.8298L19.4352 31.8253L19.4123 31.8098C19.3928 31.7966 19.3651 31.7776 19.3296 31.753C19.2585 31.7038 19.1565 31.6321 19.0278 31.5392C18.7705 31.3534 18.4064 31.0822 17.9708 30.7354C17.1013 30.043 15.9394 29.0428 14.774 27.8127C12.4843 25.3958 10 21.9019 10 18C10 15.3478 11.0536 12.8043 12.9289 10.9289C14.8043 9.05357 17.3478 8 20 8C22.6522 8 25.1957 9.05357 27.0711 10.9289C28.9464 12.8043 30 15.3478 30 18C30 21.9019 27.5157 25.3958 25.226 27.8127C24.0606 29.0428 22.8987 30.043 22.0292 30.7354C21.5936 31.0822 21.2295 31.3534 20.9722 31.5392C20.8435 31.6321 20.7415 31.7038 20.6704 31.753C20.6349 31.7776 20.6072 31.7966 20.5877 31.8098L20.5648 31.8253L20.5581 31.8298L20.556 31.8312C20.5557 31.8314 20.5547 31.8321 20 31ZM20 31L20.5547 31.8321C20.2188 32.056 19.7807 32.0556 19.4448 31.8317L20 31Z" fill="white"/>
<path fill-rule="evenodd" clip-rule="evenodd" d="M20 16C18.8954 16 18 16.8954 18 18C18 19.1046 18.8954 20 20 20C21.1046 20 22 19.1046 22 18C22 16.8954 21.1046 16 20 16ZM16 18C16 15.7909 17.7909 14 20 14C22.2091 14 24 15.7909 24 18C24 20.2091 22.2091 22 20 22C17.7909 22 16 20.2091 16 18Z" fill="white"/>
</svg>
