<svg width="40" height="40" viewBox="0 0 40 40" fill="none" xmlns="http://www.w3.org/2000/svg">
<rect width="40" height="40" rx="20" fill="#734B2E"/>
<path fill-rule="evenodd" clip-rule="evenodd" d="M12 13C11.4523 13 11 13.4523 11 14V26C11 26.5477 11.4523 27 12 27H28C28.5477 27 29 26.5477 29 26V14C29 13.4523 28.5477 13 28 13H12ZM9 14C9 12.3477 10.3477 11 12 11H28C29.6523 11 31 12.3477 31 14V26C31 27.6523 29.6523 29 28 29H12C10.3477 29 9 27.6523 9 26V14Z" fill="white"/>
<path fill-rule="evenodd" clip-rule="evenodd" d="M9.18073 13.4266C9.49745 12.9742 10.121 12.8641 10.5734 13.1809L20 19.7794L29.4265 13.1809C29.879 12.8641 30.5025 12.9742 30.8192 13.4266C31.1359 13.8791 31.0259 14.5026 30.5734 14.8193L20.5734 21.8193C20.2291 22.0603 19.7708 22.0603 19.4265 21.8193L9.4265 14.8193C8.97405 14.5026 8.86402 13.8791 9.18073 13.4266Z" fill="white"/>
</svg>
